<?xml version="1.0" encoding="utf-8"?>
<!-- Generator: Adobe Illustrator 21.0.0, SVG Export Plug-In . SVG Version: 6.00 Build 0)  -->
<svg version="1.1" id="Capa_1" xmlns="http://www.w3.org/2000/svg" xmlns:xlink="http://www.w3.org/1999/xlink" x="0px" y="0px"
	 viewBox="0 0 595.3 841.9" style="enable-background:new 0 0 595.3 841.9;" xml:space="preserve">
<style type="text/css">
	.st0{fill:url(#SVGID_1_);}
	.st1{fill:url(#SVGID_2_);}
	.st2{fill:url(#SVGID_3_);}
	.st3{fill:url(#SVGID_4_);}
	.st4{fill:url(#SVGID_5_);}
	.st5{fill:url(#SVGID_6_);}
	.st6{fill:url(#SVGID_7_);}
	.st7{fill:url(#SVGID_8_);}
	.st8{fill:url(#SVGID_9_);}
	.st9{fill:url(#SVGID_10_);}
</style>
<g>
	<path d="M135.8,198.4c0.4-10.5,3-21,8-31c18-36.1,60.5-51.7,97.2-36.8l-0.1-0.3c-4.7-17.7-16.6-33.3-34.3-42.1
		c-32.6-16.2-72.1-3-88.4,29.6C104.1,146.2,111.6,179.5,135.8,198.4"/>
	<path d="M349.7,198.4c24.1-18.9,31.7-52.1,17.5-80.6C351,85.2,311.4,72,278.8,88.2c-17.7,8.8-29.6,24.5-34.3,42.1l-0.1,0.3
		c36.7-15,79.3,0.7,97.2,36.8C346.7,177.4,349.3,187.9,349.7,198.4"/>
	<path d="M305,198.3c-6,8.6-13.9,16-23.5,21.8c-34.6,20.6-78.9,10.9-101.7-21.6l-0.1,0.3c-5.6,17.4-4,37.1,6.1,54
		c18.6,31.2,59.1,41.5,90.3,22.8C303.6,259.3,315.1,227.2,305,198.3"/>
	<g>
		<path d="M172.7,191.4h-9.5v-40.2h9.5V191.4z"/>
		<path d="M180,158.4v-7.1h9.8v7.1H180z M180.1,191.4v-28.8h9.6l0.1,28.8H180.1z"/>
		<path d="M209.6,192.6c-3.7,0-6.3-0.8-8.1-2.5s-2.6-4-2.6-7v-13.8h-4.1v-7.2h4.1v-8h10v8h6.2v7.2H209v12.8c0,0.8,0.2,1.5,0.6,1.9
			c0.4,0.4,1.1,0.6,2,0.6c0.5,0,1.2-0.1,1.8-0.4c0.7-0.2,1.3-0.6,1.8-1v8.1c-0.9,0.5-1.9,0.8-2.8,1
			C211.4,192.5,210.5,192.6,209.6,192.6z"/>
		<path d="M234.9,192.2c-3,0-5.6-0.6-7.9-1.8c-2.3-1.2-4.1-2.9-5.3-5.2c-1.3-2.2-1.9-4.9-1.9-8c0-5.1,1.3-9.1,3.9-11.9
			c2.6-2.8,6.3-4.3,11.1-4.3c3.2,0,5.8,0.7,7.8,2.1c2,1.4,3.5,3.4,4.4,6.2c1,2.7,1.4,6.1,1.4,10h-22l-1.2-5.8h15.1l-1.2,3.1
			c0-3.1-0.4-5.3-1.2-6.5c-0.7-1.2-2-1.9-3.7-1.9c-0.9,0-1.8,0.3-2.5,0.8c-0.8,0.5-1.4,1.4-1.8,2.5c-0.4,1.2-0.7,2.7-0.7,4.7
			c0,2.7,0.6,4.7,1.9,6.1c1.2,1.4,3.3,2.1,6.2,2.1c1,0,2.1-0.1,3.1-0.4c1-0.3,2-0.5,2.9-0.9s1.6-0.6,2.2-0.8v8.1
			c-1.3,0.5-2.9,0.9-4.6,1.3C239.3,192,237.3,192.2,234.9,192.2z"/>
		<path d="M254,191.4v-26c0.6-0.5,1.6-1.1,2.9-1.8s3-1.2,4.8-1.7c1.8-0.5,3.5-0.7,5.3-0.7c2.2,0,3.8,0.2,5,0.5
			c1.2,0.3,2.1,0.7,2.7,1.2v6.9c-0.6-0.2-1.4-0.3-2.4-0.4c-1-0.1-2.1-0.2-3.2-0.2c-1.1,0-2.2,0-3.1,0c-1,0-1.8,0.1-2.3,0.2v22.1H254
			z"/>
		<path d="M290.9,192.2c-1.9,0-3.6-0.2-5.2-0.5s-3-0.9-4.2-1.6c-1.2-0.8-2.1-1.8-2.8-3.2c-0.7-1.3-1-3-1-5c0-1.7,0.4-3.2,1.1-4.5
			c0.7-1.3,1.9-2.3,3.4-3.1c1.5-0.8,3.5-1.2,5.9-1.2c1.3,0,2.5,0.1,3.7,0.4c1.2,0.3,2.3,0.7,3.3,1.2c1,0.5,1.8,1,2.3,1.6l0.3,4.3
			c-0.8-0.4-1.6-0.8-2.6-1c-1-0.2-2-0.4-3-0.4c-1.8,0-3,0.2-3.8,0.7c-0.8,0.5-1.2,1.3-1.2,2.3c0,0.6,0.2,1.2,0.5,1.7
			c0.4,0.5,0.8,0.9,1.4,1.2c0.6,0.3,1.2,0.5,1.9,0.5c1.8,0,3.1-0.1,3.8-0.3c0.7-0.2,1-0.7,1-1.4v-10.1c0-1.7-0.5-2.9-1.6-3.7
			c-1.1-0.8-2.6-1.1-4.6-1.1c-1.7,0-3.5,0.3-5.2,1c-1.7,0.7-3.1,1.4-4.1,2.2v-8.4c0.9-0.6,2.5-1.2,4.6-1.7s4.6-0.8,7.4-0.8
			c0.8,0,1.8,0.1,2.9,0.2c1.1,0.1,2.3,0.4,3.5,0.8c1.2,0.4,2.3,1,3.3,1.7c1,0.8,1.8,1.8,2.5,3c0.6,1.2,0.9,2.8,0.9,4.7l-0.1,13.7
			c0,1.6-0.5,2.9-1.6,3.9c-1.1,1-2.7,1.8-4.8,2.3C296.6,192,294,192.2,290.9,192.2z"/>
		<path d="M321.9,191.4h-9.5v-40.2h9.5V191.4z"/>
	</g>
</g>
<g>
	<radialGradient id="SVGID_1_" cx="177.7943" cy="445.3897" r="61.8282" gradientUnits="userSpaceOnUse">
		<stop  offset="0" style="stop-color:#FFFFFF"/>
		<stop  offset="7.375524e-02" style="stop-color:#CCCCCC"/>
		<stop  offset="0.1537" style="stop-color:#9D9D9D"/>
		<stop  offset="0.2385" style="stop-color:#737373"/>
		<stop  offset="0.3268" style="stop-color:#4F4F4F"/>
		<stop  offset="0.4194" style="stop-color:#323232"/>
		<stop  offset="0.5178" style="stop-color:#1C1C1C"/>
		<stop  offset="0.6246" style="stop-color:#0C0C0C"/>
		<stop  offset="0.7463" style="stop-color:#030303"/>
		<stop  offset="0.915" style="stop-color:#000000"/>
	</radialGradient>
	<path class="st0" d="M137.5,503.9c0.4-10.5,3-21,8-31c18-36.1,60.5-51.7,97.2-36.8l-0.1-0.3c-4.7-17.7-16.6-33.3-34.3-42.1
		c-32.6-16.2-72.1-3-88.4,29.6C105.8,451.8,113.4,485,137.5,503.9"/>
	<radialGradient id="SVGID_2_" cx="311.1276" cy="445.3897" r="61.8282" gradientUnits="userSpaceOnUse">
		<stop  offset="0" style="stop-color:#FFFFFF"/>
		<stop  offset="7.375524e-02" style="stop-color:#CCCCCC"/>
		<stop  offset="0.1537" style="stop-color:#9D9D9D"/>
		<stop  offset="0.2385" style="stop-color:#737373"/>
		<stop  offset="0.3268" style="stop-color:#4F4F4F"/>
		<stop  offset="0.4194" style="stop-color:#323232"/>
		<stop  offset="0.5178" style="stop-color:#1C1C1C"/>
		<stop  offset="0.6246" style="stop-color:#0C0C0C"/>
		<stop  offset="0.7463" style="stop-color:#030303"/>
		<stop  offset="0.915" style="stop-color:#000000"/>
	</radialGradient>
	<path class="st1" d="M351.4,503.9c24.1-18.9,31.7-52.1,17.5-80.6c-16.2-32.6-55.8-45.8-88.4-29.6c-17.7,8.8-29.6,24.5-34.3,42.1
		l-0.1,0.3c36.7-15,79.3,0.7,97.2,36.8C348.4,482.9,351,493.5,351.4,503.9"/>
	
		<radialGradient id="SVGID_3_" cx="244.3374" cy="547.1729" r="55.8344" gradientTransform="matrix(1 0 0 3 0 -1094.3457)" gradientUnits="userSpaceOnUse">
		<stop  offset="0" style="stop-color:#9C9C9C"/>
		<stop  offset="0.1348" style="stop-color:#777777"/>
		<stop  offset="0.3157" style="stop-color:#4D4D4D"/>
		<stop  offset="0.4917" style="stop-color:#2B2B2B"/>
		<stop  offset="0.659" style="stop-color:#131313"/>
		<stop  offset="0.8141" style="stop-color:#050505"/>
		<stop  offset="0.945" style="stop-color:#000000"/>
	</radialGradient>
	<path class="st2" d="M306.8,503.9c-6,8.6-13.9,16-23.5,21.8c-34.6,20.6-78.9,10.9-101.7-21.6l-0.1,0.3c-5.6,17.4-4,37.1,6.1,54
		c18.6,31.2,59.1,41.5,90.3,22.8C305.3,564.9,316.9,532.8,306.8,503.9"/>
	<g>
		<linearGradient id="SVGID_4_" gradientUnits="userSpaceOnUse" x1="169.7398" y1="496.9418" x2="169.7398" y2="456.7016">
			<stop  offset="0" style="stop-color:#2E2E2E"/>
			<stop  offset="0.24" style="stop-color:#BDBDBD"/>
			<stop  offset="0.3041" style="stop-color:#949494"/>
			<stop  offset="0.386" style="stop-color:#676767"/>
			<stop  offset="0.4686" style="stop-color:#424242"/>
			<stop  offset="0.5507" style="stop-color:#252525"/>
			<stop  offset="0.632" style="stop-color:#111111"/>
			<stop  offset="0.7122" style="stop-color:#040404"/>
			<stop  offset="0.79" style="stop-color:#000000"/>
		</linearGradient>
		<path class="st3" d="M174.5,496.9H165v-40.2h9.5V496.9z"/>
		<linearGradient id="SVGID_5_" gradientUnits="userSpaceOnUse" x1="186.6304" y1="496.9418" x2="186.6304" y2="456.8744">
			<stop  offset="0" style="stop-color:#2E2E2E"/>
			<stop  offset="0.24" style="stop-color:#BDBDBD"/>
			<stop  offset="0.3041" style="stop-color:#949494"/>
			<stop  offset="0.386" style="stop-color:#676767"/>
			<stop  offset="0.4686" style="stop-color:#424242"/>
			<stop  offset="0.5507" style="stop-color:#252525"/>
			<stop  offset="0.632" style="stop-color:#111111"/>
			<stop  offset="0.7122" style="stop-color:#040404"/>
			<stop  offset="0.79" style="stop-color:#000000"/>
		</linearGradient>
		<path class="st4" d="M181.7,464v-7.1h9.8v7.1H181.7z M181.8,496.9v-28.8h9.6l0.1,28.8H181.8z"/>
		<linearGradient id="SVGID_6_" gradientUnits="userSpaceOnUse" x1="206.7793" y1="498.2094" x2="206.7793" y2="459.6996">
			<stop  offset="0" style="stop-color:#2E2E2E"/>
			<stop  offset="0.24" style="stop-color:#BDBDBD"/>
			<stop  offset="0.3041" style="stop-color:#949494"/>
			<stop  offset="0.386" style="stop-color:#676767"/>
			<stop  offset="0.4686" style="stop-color:#424242"/>
			<stop  offset="0.5507" style="stop-color:#252525"/>
			<stop  offset="0.632" style="stop-color:#111111"/>
			<stop  offset="0.7122" style="stop-color:#040404"/>
			<stop  offset="0.79" style="stop-color:#000000"/>
		</linearGradient>
		<path class="st5" d="M211.4,498.2c-3.7,0-6.3-0.8-8.1-2.5s-2.6-4-2.6-7v-13.8h-4.1v-7.2h4.1v-8h10v8h6.2v7.2h-6.2v12.8
			c0,0.8,0.2,1.5,0.6,1.9c0.4,0.4,1.1,0.6,2,0.6c0.5,0,1.2-0.1,1.8-0.4c0.7-0.2,1.3-0.6,1.8-1v8.1c-0.9,0.5-1.9,0.8-2.8,1
			C213.2,498.1,212.2,498.2,211.4,498.2z"/>
		<linearGradient id="SVGID_7_" gradientUnits="userSpaceOnUse" x1="235.8346" y1="497.8061" x2="235.8346" y2="466.6176">
			<stop  offset="0" style="stop-color:#2E2E2E"/>
			<stop  offset="0.24" style="stop-color:#BDBDBD"/>
			<stop  offset="0.3041" style="stop-color:#949494"/>
			<stop  offset="0.386" style="stop-color:#676767"/>
			<stop  offset="0.4686" style="stop-color:#424242"/>
			<stop  offset="0.5507" style="stop-color:#252525"/>
			<stop  offset="0.632" style="stop-color:#111111"/>
			<stop  offset="0.7122" style="stop-color:#040404"/>
			<stop  offset="0.79" style="stop-color:#000000"/>
		</linearGradient>
		<path class="st6" d="M236.7,497.8c-3,0-5.6-0.6-7.9-1.8c-2.3-1.2-4.1-2.9-5.3-5.2c-1.3-2.2-1.9-4.9-1.9-8c0-5.1,1.3-9.1,3.9-11.9
			c2.6-2.8,6.3-4.3,11.1-4.3c3.2,0,5.8,0.7,7.8,2.1c2,1.4,3.5,3.4,4.4,6.2c1,2.7,1.4,6.1,1.4,10h-22l-1.2-5.8h15.1l-1.2,3.1
			c0-3.1-0.4-5.3-1.2-6.5c-0.7-1.2-2-1.9-3.7-1.9c-0.9,0-1.8,0.3-2.5,0.8c-0.8,0.5-1.4,1.4-1.8,2.5c-0.4,1.2-0.7,2.7-0.7,4.7
			c0,2.7,0.6,4.7,1.9,6.1c1.2,1.4,3.3,2.1,6.2,2.1c1,0,2.1-0.1,3.1-0.4c1-0.3,2-0.5,2.9-0.9s1.6-0.6,2.2-0.8v8.1
			c-1.3,0.5-2.9,0.9-4.6,1.3C241,497.6,239,497.8,236.7,497.8z"/>
		<linearGradient id="SVGID_8_" gradientUnits="userSpaceOnUse" x1="266.0699" y1="496.9418" x2="266.0699" y2="466.7904">
			<stop  offset="0" style="stop-color:#2E2E2E"/>
			<stop  offset="0.24" style="stop-color:#BDBDBD"/>
			<stop  offset="0.3041" style="stop-color:#949494"/>
			<stop  offset="0.386" style="stop-color:#676767"/>
			<stop  offset="0.4686" style="stop-color:#424242"/>
			<stop  offset="0.5507" style="stop-color:#252525"/>
			<stop  offset="0.632" style="stop-color:#111111"/>
			<stop  offset="0.7122" style="stop-color:#040404"/>
			<stop  offset="0.79" style="stop-color:#000000"/>
		</linearGradient>
		<path class="st7" d="M255.8,496.9v-26c0.6-0.5,1.6-1.1,2.9-1.8s3-1.2,4.8-1.7c1.8-0.5,3.5-0.7,5.3-0.7c2.2,0,3.8,0.2,5,0.5
			c1.2,0.3,2.1,0.7,2.7,1.2v6.9c-0.6-0.2-1.4-0.3-2.4-0.4c-1-0.1-2.1-0.2-3.2-0.2c-1.1,0-2.2,0-3.1,0c-1,0-1.8,0.1-2.3,0.2v22.1
			H255.8z"/>
		<linearGradient id="SVGID_9_" gradientUnits="userSpaceOnUse" x1="293.1656" y1="497.8061" x2="293.1656" y2="466.7904">
			<stop  offset="0" style="stop-color:#2E2E2E"/>
			<stop  offset="0.24" style="stop-color:#BDBDBD"/>
			<stop  offset="0.3041" style="stop-color:#949494"/>
			<stop  offset="0.386" style="stop-color:#676767"/>
			<stop  offset="0.4686" style="stop-color:#424242"/>
			<stop  offset="0.5507" style="stop-color:#252525"/>
			<stop  offset="0.632" style="stop-color:#111111"/>
			<stop  offset="0.7122" style="stop-color:#040404"/>
			<stop  offset="0.79" style="stop-color:#000000"/>
		</linearGradient>
		<path class="st8" d="M292.6,497.8c-1.9,0-3.6-0.2-5.2-0.5s-3-0.9-4.2-1.6c-1.2-0.8-2.1-1.8-2.8-3.2c-0.7-1.3-1-3-1-5
			c0-1.7,0.4-3.2,1.1-4.5c0.7-1.3,1.9-2.3,3.4-3.1c1.5-0.8,3.5-1.2,5.9-1.2c1.3,0,2.5,0.1,3.7,0.4c1.2,0.3,2.3,0.7,3.3,1.2
			c1,0.5,1.8,1,2.3,1.6l0.3,4.3c-0.8-0.4-1.6-0.8-2.6-1c-1-0.2-2-0.4-3-0.4c-1.8,0-3,0.2-3.8,0.7c-0.8,0.5-1.2,1.3-1.2,2.3
			c0,0.6,0.2,1.2,0.5,1.7c0.4,0.5,0.8,0.9,1.4,1.2c0.6,0.3,1.2,0.5,1.9,0.5c1.8,0,3.1-0.1,3.8-0.3c0.7-0.2,1-0.7,1-1.4v-10.1
			c0-1.7-0.5-2.9-1.6-3.7c-1.1-0.8-2.6-1.1-4.6-1.1c-1.7,0-3.5,0.3-5.2,1c-1.7,0.7-3.1,1.4-4.1,2.2v-8.4c0.9-0.6,2.5-1.2,4.6-1.7
			s4.6-0.8,7.4-0.8c0.8,0,1.8,0.1,2.9,0.2c1.1,0.1,2.3,0.4,3.5,0.8c1.2,0.4,2.3,1,3.3,1.7c1,0.8,1.8,1.8,2.5,3
			c0.6,1.2,0.9,2.8,0.9,4.7l-0.1,13.7c0,1.6-0.5,2.9-1.6,3.9c-1.1,1-2.7,1.8-4.8,2.3C298.3,497.6,295.7,497.8,292.6,497.8z"/>
		<linearGradient id="SVGID_10_" gradientUnits="userSpaceOnUse" x1="318.9351" y1="496.9418" x2="318.9351" y2="456.7016">
			<stop  offset="0" style="stop-color:#2E2E2E"/>
			<stop  offset="0.24" style="stop-color:#BDBDBD"/>
			<stop  offset="0.3041" style="stop-color:#949494"/>
			<stop  offset="0.386" style="stop-color:#676767"/>
			<stop  offset="0.4686" style="stop-color:#424242"/>
			<stop  offset="0.5507" style="stop-color:#252525"/>
			<stop  offset="0.632" style="stop-color:#111111"/>
			<stop  offset="0.7122" style="stop-color:#040404"/>
			<stop  offset="0.79" style="stop-color:#000000"/>
		</linearGradient>
		<path class="st9" d="M323.7,496.9h-9.5v-40.2h9.5V496.9z"/>
	</g>
</g>
</svg>
